<svg width="30" height="22" viewBox="0 0 30 22" fill="none" xmlns="http://www.w3.org/2000/svg">
<path d="M25.2305 1.84179C23.3202 0.971655 21.2932 0.348055 19.2079 0C18.9308 0.507581 18.6684 1.02966 18.435 1.55175C16.2185 1.21819 13.9728 1.21819 11.7562 1.55175C11.5229 1.01516 11.275 0.493078 10.9834 0C8.89807 0.348055 6.88568 0.971655 4.96079 1.84179C1.16934 7.45419 0.133977 12.9071 0.644365 18.3019C2.87549 19.9407 5.3691 21.1879 8.02312 21.9855C8.621 21.1879 9.14597 20.3322 9.59803 19.4476C8.73766 19.1285 7.90646 18.737 7.10442 18.2729C7.30858 18.1279 7.51273 17.9684 7.71689 17.8233C12.3833 20.0132 17.7934 20.0132 22.4744 17.8233C22.6785 17.9829 22.8827 18.1424 23.0869 18.2729C22.2994 18.737 21.4536 19.1285 20.5932 19.4621C21.0453 20.3467 21.5703 21.2024 22.1682 22C24.8222 21.2024 27.3158 19.9552 29.5469 18.3164C30.1594 12.0659 28.5116 6.65656 25.2159 1.8563L25.2305 1.84179ZM10.2688 14.9809C8.82516 14.9809 7.64397 13.6757 7.64397 12.0804C7.64397 10.4852 8.79599 9.17996 10.2688 9.17996C11.7417 9.17996 12.9228 10.4852 12.8937 12.0804C12.8645 13.6757 11.7417 14.9809 10.2688 14.9809ZM19.9516 14.9809C18.5079 14.9809 17.3268 13.6757 17.3268 12.0804C17.3268 10.4852 18.4788 9.17996 19.9516 9.17996C21.4245 9.17996 22.6056 10.4852 22.5765 12.0804C22.5473 13.6757 21.4245 14.9809 19.9516 14.9809Z" fill="black"/>
</svg>
