<svg width="50" height="38" viewBox="0 0 50 38" fill="none" xmlns="http://www.w3.org/2000/svg">
<path d="M42.38 3.15916C39.1033 1.66665 35.6265 0.597007 32.0497 0C31.5744 0.870636 31.1242 1.76615 30.724 2.66166C26.922 2.08953 23.07 2.08953 19.2681 2.66166C18.8679 1.74127 18.4427 0.845761 17.9424 0C14.3656 0.597007 10.9138 1.66665 7.61208 3.15916C1.10872 12.7859 -0.667191 22.139 0.20826 31.3926C4.03523 34.2036 8.31244 36.3428 12.8648 37.711C13.8903 36.3428 14.7908 34.8752 15.5662 33.3578C14.0904 32.8105 12.6647 32.1389 11.289 31.3429C11.6392 31.0941 11.9893 30.8205 12.3395 30.5718C20.3436 34.3279 29.6234 34.3279 37.6526 30.5718C38.0027 30.8454 38.3529 31.119 38.7031 31.3429C37.3524 32.1389 35.9017 32.8105 34.4259 33.3827C35.2013 34.9001 36.1018 36.3677 37.1273 37.7358C41.6796 36.3677 45.9568 34.2284 49.7838 31.4175C50.8344 20.6963 48.0079 11.4178 42.355 3.18404L42.38 3.15916ZM16.7168 25.6962C14.2405 25.6962 12.2144 23.4574 12.2144 20.7211C12.2144 17.9848 14.1905 15.7461 16.7168 15.7461C19.2431 15.7461 21.2691 17.9848 21.2191 20.7211C21.1691 23.4574 19.2431 25.6962 16.7168 25.6962ZM33.3253 25.6962C30.8491 25.6962 28.823 23.4574 28.823 20.7211C28.823 17.9848 30.799 15.7461 33.3253 15.7461C35.8516 15.7461 37.8777 17.9848 37.8277 20.7211C37.7776 23.4574 35.8516 25.6962 33.3253 25.6962Z" fill="black"/>
</svg>
