<svg width="122" height="44" viewBox="0 0 122 44" fill="none" xmlns="http://www.w3.org/2000/svg">
<g filter="url(#filter0_d_2091_232)">
<mask id="path-1-outside-1_2091_232" maskUnits="userSpaceOnUse" x="6" y="5" width="111" height="35" fill="black">
<rect fill="white" x="6" y="5" width="111" height="35"/>
<path d="M12.8275 35.324C11.9875 35.324 11.3755 35.192 10.9915 34.928C10.6075 34.664 10.3675 34.328 10.2715 33.92C10.1755 33.488 10.1275 33.032 10.1275 32.552V12.788C10.1275 12.332 10.1755 11.912 10.2715 11.528C10.3675 11.144 10.6075 10.832 10.9915 10.592C11.3995 10.328 12.0475 10.196 12.9355 10.196C13.7995 10.196 14.3995 10.304 14.7355 10.52C15.0715 10.712 15.3715 10.988 15.6355 11.348L26.1475 25.784V12.788C26.1475 12.332 26.1955 11.912 26.2915 11.528C26.4115 11.144 26.6635 10.832 27.0475 10.592C27.4315 10.328 28.0555 10.196 28.9195 10.196C29.8075 10.196 30.4315 10.328 30.7915 10.592C31.1755 10.856 31.4035 11.204 31.4755 11.636C31.5715 12.044 31.6195 12.476 31.6195 12.932V32.588C31.6195 33.044 31.5715 33.488 31.4755 33.92C31.3795 34.328 31.1395 34.664 30.7555 34.928C30.3715 35.192 29.7355 35.324 28.8475 35.324C28.1755 35.324 27.6475 35.264 27.2635 35.144C26.9035 35.024 26.5915 34.796 26.3275 34.46L15.5995 19.916V32.588C15.5995 33.044 15.5515 33.488 15.4555 33.92C15.3595 34.328 15.1195 34.664 14.7355 34.928C14.3515 35.192 13.7155 35.324 12.8275 35.324ZM43.3777 35.612C42.2497 35.612 41.1217 35.396 39.9937 34.964C38.8897 34.508 37.8817 33.872 36.9697 33.056C36.0577 32.24 35.3377 31.268 34.8097 30.14C34.2817 28.988 34.0177 27.716 34.0177 26.324C34.0177 25.028 34.2577 23.828 34.7377 22.724C35.2177 21.596 35.8897 20.6 36.7537 19.736C37.6177 18.872 38.6017 18.2 39.7057 17.72C40.8337 17.216 42.0337 16.964 43.3057 16.964C45.0337 16.964 46.5937 17.384 47.9857 18.224C49.4017 19.04 50.5297 20.156 51.3697 21.572C52.2097 22.988 52.6297 24.56 52.6297 26.288C52.6297 27.752 52.3537 29.06 51.8017 30.212C51.2737 31.34 50.5537 32.312 49.6417 33.128C48.7537 33.944 47.7577 34.568 46.6537 35C45.5737 35.408 44.4817 35.612 43.3777 35.612ZM43.3057 30.176C43.8817 30.176 44.4697 30.032 45.0697 29.744C45.6697 29.456 46.1737 29.024 46.5817 28.448C46.9897 27.872 47.1937 27.14 47.1937 26.252C47.1937 25.484 47.0257 24.812 46.6897 24.236C46.3537 23.66 45.8857 23.216 45.2857 22.904C44.7097 22.568 44.0377 22.4 43.2697 22.4C42.5497 22.4 41.9017 22.568 41.3257 22.904C40.7737 23.24 40.3177 23.708 39.9577 24.308C39.6217 24.884 39.4537 25.544 39.4537 26.288C39.4537 27.152 39.6457 27.884 40.0297 28.484C40.4377 29.06 40.9417 29.492 41.5417 29.78C42.1417 30.044 42.7297 30.176 43.3057 30.176ZM63.5718 35.324C62.3478 35.324 61.2918 35.192 60.4038 34.928C59.5398 34.664 58.8198 34.256 58.2438 33.704C57.6678 33.152 57.2358 32.456 56.9478 31.616C56.6838 30.752 56.5518 29.732 56.5518 28.556V13.94C56.5518 13.46 56.5878 13.028 56.6598 12.644C56.7558 12.26 56.9958 11.948 57.3798 11.708C57.7638 11.444 58.3878 11.312 59.2518 11.312C60.1158 11.312 60.7398 11.444 61.1238 11.708C61.5078 11.972 61.7358 12.308 61.8078 12.716C61.9038 13.124 61.9518 13.568 61.9518 14.048V28.34C61.9518 28.724 61.9758 29.048 62.0238 29.312C62.0958 29.552 62.1918 29.732 62.3118 29.852C62.4318 29.972 62.5998 30.056 62.8158 30.104C63.0318 30.152 63.2958 30.176 63.6078 30.176C64.1358 30.176 64.6038 30.224 65.0118 30.32C65.4198 30.416 65.7318 30.632 65.9478 30.968C66.1878 31.304 66.3078 31.868 66.3078 32.66C66.3078 33.524 66.1758 34.148 65.9118 34.532C65.6478 34.916 65.2998 35.144 64.8678 35.216C64.4598 35.288 64.0278 35.324 63.5718 35.324ZM55.4358 17.612H59.3958L64.3638 17.468C64.8198 17.468 65.2518 17.516 65.6598 17.612C66.0678 17.684 66.4038 17.912 66.6678 18.296C66.9318 18.68 67.0638 19.316 67.0638 20.204C67.0638 21.02 66.9318 21.62 66.6678 22.004C66.4278 22.388 66.1038 22.64 65.6958 22.76C65.2878 22.856 64.8438 22.904 64.3638 22.904L59.6478 22.796H55.2918C54.5958 22.772 54.1038 22.568 53.8158 22.184C53.5518 21.776 53.4198 21.104 53.4198 20.168C53.4198 19.304 53.5878 18.668 53.9238 18.26C54.2598 17.828 54.7638 17.612 55.4358 17.612ZM72.0005 35.324C71.1125 35.324 70.4765 35.204 70.0925 34.964C69.7325 34.7 69.5045 34.364 69.4085 33.956C69.3365 33.524 69.3005 33.08 69.3005 32.624V20.06C69.3005 19.58 69.3365 19.136 69.4085 18.728C69.5045 18.32 69.7445 17.996 70.1285 17.756C70.5125 17.492 71.1485 17.36 72.0365 17.36C72.9005 17.36 73.5125 17.492 73.8725 17.756C74.2565 18.02 74.4845 18.356 74.5565 18.764C74.6525 19.172 74.7005 19.628 74.7005 20.132V32.66C74.7005 33.116 74.6525 33.56 74.5565 33.992C74.4845 34.4 74.2565 34.724 73.8725 34.964C73.5125 35.204 72.8885 35.324 72.0005 35.324ZM72.0005 14.732C71.0885 14.732 70.4405 14.6 70.0565 14.336C69.6725 14.072 69.4325 13.724 69.3365 13.292C69.2645 12.86 69.2285 12.404 69.2285 11.924C69.2285 11.42 69.2765 10.964 69.3725 10.556C69.4685 10.124 69.7085 9.788 70.0925 9.548C70.4765 9.284 71.1245 9.152 72.0365 9.152C72.9245 9.152 73.5605 9.284 73.9445 9.548C74.3285 9.812 74.5565 10.16 74.6285 10.592C74.7245 11.024 74.7725 11.48 74.7725 11.96C74.7725 12.44 74.7245 12.896 74.6285 13.328C74.5565 13.76 74.3285 14.108 73.9445 14.372C73.5605 14.612 72.9125 14.732 72.0005 14.732ZM86.1688 35.468C85.1128 35.468 84.0328 35.276 82.9288 34.892C81.8488 34.484 80.8408 33.896 79.9048 33.128C78.9928 32.336 78.2608 31.376 77.7088 30.248C77.1568 29.096 76.8808 27.776 76.8808 26.288C76.8808 24.8 77.1568 23.492 77.7088 22.364C78.2608 21.236 78.9928 20.288 79.9048 19.52C80.8168 18.752 81.8128 18.176 82.8928 17.792C83.9968 17.384 85.0648 17.18 86.0968 17.18C86.9848 17.18 87.7768 17.288 88.4728 17.504C89.1928 17.696 89.7928 17.936 90.2728 18.224C90.7768 18.512 91.1368 18.764 91.3528 18.98C91.7608 19.292 92.1208 19.604 92.4328 19.916C92.7448 20.228 92.8888 20.636 92.8648 21.14C92.8408 21.404 92.7568 21.68 92.6128 21.968C92.4688 22.232 92.2888 22.508 92.0728 22.796C91.3528 23.804 90.6328 24.26 89.9128 24.164C89.5528 24.092 89.2168 23.972 88.9048 23.804C88.6168 23.636 88.3288 23.468 88.0408 23.3C87.7768 23.108 87.4888 22.952 87.1768 22.832C86.8648 22.712 86.5048 22.652 86.0968 22.652C85.4008 22.652 84.7768 22.808 84.2248 23.12C83.6728 23.432 83.2288 23.864 82.8928 24.416C82.5808 24.968 82.4248 25.604 82.4248 26.324C82.4248 27.02 82.5808 27.644 82.8928 28.196C83.2288 28.748 83.6608 29.192 84.1888 29.528C84.7408 29.84 85.3528 29.996 86.0248 29.996C86.4328 29.996 86.7808 29.948 87.0688 29.852C87.3808 29.756 87.6448 29.648 87.8608 29.528C88.0768 29.384 88.2448 29.276 88.3648 29.204C88.6528 29.012 88.9288 28.844 89.1928 28.7C89.4568 28.532 89.7328 28.448 90.0208 28.448C90.3568 28.448 90.7048 28.58 91.0648 28.844C91.4248 29.084 91.8208 29.48 92.2528 30.032C92.6368 30.536 92.8528 31.004 92.9008 31.436C92.9728 31.868 92.8768 32.276 92.6128 32.66C92.3488 33.044 91.9408 33.416 91.3888 33.776C91.1968 33.944 90.8488 34.16 90.3448 34.424C89.8648 34.688 89.2648 34.928 88.5448 35.144C87.8488 35.36 87.0568 35.468 86.1688 35.468ZM104.381 35.648C102.701 35.648 101.249 35.372 100.025 34.82C98.8246 34.268 97.8406 33.548 97.0726 32.66C96.3046 31.748 95.7286 30.74 95.3446 29.636C94.9846 28.532 94.8046 27.428 94.8046 26.324C94.8046 24.524 95.2126 22.928 96.0286 21.536C96.8446 20.144 97.9726 19.052 99.4126 18.26C100.853 17.444 102.509 17.036 104.381 17.036C105.773 17.036 106.973 17.264 107.981 17.72C109.013 18.152 109.853 18.728 110.501 19.448C111.173 20.144 111.665 20.9 111.977 21.716C112.313 22.532 112.481 23.312 112.481 24.056C112.481 25.376 112.157 26.36 111.509 27.008C110.885 27.632 110.081 27.944 109.097 27.944H100.529C100.577 28.568 100.793 29.096 101.177 29.528C101.585 29.96 102.089 30.296 102.689 30.536C103.289 30.776 103.925 30.896 104.597 30.896C105.173 30.896 105.677 30.872 106.109 30.824C106.541 30.752 106.913 30.668 107.225 30.572C107.537 30.452 107.825 30.344 108.089 30.248C108.353 30.128 108.581 30.032 108.773 29.96C108.989 29.888 109.193 29.84 109.385 29.816C109.745 29.792 110.069 29.9 110.357 30.14C110.669 30.356 110.945 30.692 111.185 31.148C111.353 31.412 111.461 31.664 111.509 31.904C111.581 32.144 111.617 32.384 111.617 32.624C111.617 33.2 111.317 33.716 110.717 34.172C110.141 34.628 109.313 34.988 108.233 35.252C107.177 35.516 105.893 35.648 104.381 35.648ZM100.529 24.992H106.217C106.601 24.992 106.877 24.932 107.045 24.812C107.237 24.668 107.333 24.404 107.333 24.02C107.333 23.588 107.201 23.216 106.937 22.904C106.673 22.568 106.313 22.316 105.857 22.148C105.425 21.956 104.921 21.86 104.345 21.86C103.601 21.86 102.941 22.004 102.365 22.292C101.789 22.58 101.333 22.964 100.997 23.444C100.685 23.924 100.529 24.44 100.529 24.992Z"/>
</mask>
<path d="M12.8275 35.324C11.9875 35.324 11.3755 35.192 10.9915 34.928C10.6075 34.664 10.3675 34.328 10.2715 33.92C10.1755 33.488 10.1275 33.032 10.1275 32.552V12.788C10.1275 12.332 10.1755 11.912 10.2715 11.528C10.3675 11.144 10.6075 10.832 10.9915 10.592C11.3995 10.328 12.0475 10.196 12.9355 10.196C13.7995 10.196 14.3995 10.304 14.7355 10.52C15.0715 10.712 15.3715 10.988 15.6355 11.348L26.1475 25.784V12.788C26.1475 12.332 26.1955 11.912 26.2915 11.528C26.4115 11.144 26.6635 10.832 27.0475 10.592C27.4315 10.328 28.0555 10.196 28.9195 10.196C29.8075 10.196 30.4315 10.328 30.7915 10.592C31.1755 10.856 31.4035 11.204 31.4755 11.636C31.5715 12.044 31.6195 12.476 31.6195 12.932V32.588C31.6195 33.044 31.5715 33.488 31.4755 33.92C31.3795 34.328 31.1395 34.664 30.7555 34.928C30.3715 35.192 29.7355 35.324 28.8475 35.324C28.1755 35.324 27.6475 35.264 27.2635 35.144C26.9035 35.024 26.5915 34.796 26.3275 34.46L15.5995 19.916V32.588C15.5995 33.044 15.5515 33.488 15.4555 33.92C15.3595 34.328 15.1195 34.664 14.7355 34.928C14.3515 35.192 13.7155 35.324 12.8275 35.324ZM43.3777 35.612C42.2497 35.612 41.1217 35.396 39.9937 34.964C38.8897 34.508 37.8817 33.872 36.9697 33.056C36.0577 32.24 35.3377 31.268 34.8097 30.14C34.2817 28.988 34.0177 27.716 34.0177 26.324C34.0177 25.028 34.2577 23.828 34.7377 22.724C35.2177 21.596 35.8897 20.6 36.7537 19.736C37.6177 18.872 38.6017 18.2 39.7057 17.72C40.8337 17.216 42.0337 16.964 43.3057 16.964C45.0337 16.964 46.5937 17.384 47.9857 18.224C49.4017 19.04 50.5297 20.156 51.3697 21.572C52.2097 22.988 52.6297 24.56 52.6297 26.288C52.6297 27.752 52.3537 29.06 51.8017 30.212C51.2737 31.34 50.5537 32.312 49.6417 33.128C48.7537 33.944 47.7577 34.568 46.6537 35C45.5737 35.408 44.4817 35.612 43.3777 35.612ZM43.3057 30.176C43.8817 30.176 44.4697 30.032 45.0697 29.744C45.6697 29.456 46.1737 29.024 46.5817 28.448C46.9897 27.872 47.1937 27.14 47.1937 26.252C47.1937 25.484 47.0257 24.812 46.6897 24.236C46.3537 23.66 45.8857 23.216 45.2857 22.904C44.7097 22.568 44.0377 22.4 43.2697 22.4C42.5497 22.4 41.9017 22.568 41.3257 22.904C40.7737 23.24 40.3177 23.708 39.9577 24.308C39.6217 24.884 39.4537 25.544 39.4537 26.288C39.4537 27.152 39.6457 27.884 40.0297 28.484C40.4377 29.06 40.9417 29.492 41.5417 29.78C42.1417 30.044 42.7297 30.176 43.3057 30.176ZM63.5718 35.324C62.3478 35.324 61.2918 35.192 60.4038 34.928C59.5398 34.664 58.8198 34.256 58.2438 33.704C57.6678 33.152 57.2358 32.456 56.9478 31.616C56.6838 30.752 56.5518 29.732 56.5518 28.556V13.94C56.5518 13.46 56.5878 13.028 56.6598 12.644C56.7558 12.26 56.9958 11.948 57.3798 11.708C57.7638 11.444 58.3878 11.312 59.2518 11.312C60.1158 11.312 60.7398 11.444 61.1238 11.708C61.5078 11.972 61.7358 12.308 61.8078 12.716C61.9038 13.124 61.9518 13.568 61.9518 14.048V28.34C61.9518 28.724 61.9758 29.048 62.0238 29.312C62.0958 29.552 62.1918 29.732 62.3118 29.852C62.4318 29.972 62.5998 30.056 62.8158 30.104C63.0318 30.152 63.2958 30.176 63.6078 30.176C64.1358 30.176 64.6038 30.224 65.0118 30.32C65.4198 30.416 65.7318 30.632 65.9478 30.968C66.1878 31.304 66.3078 31.868 66.3078 32.66C66.3078 33.524 66.1758 34.148 65.9118 34.532C65.6478 34.916 65.2998 35.144 64.8678 35.216C64.4598 35.288 64.0278 35.324 63.5718 35.324ZM55.4358 17.612H59.3958L64.3638 17.468C64.8198 17.468 65.2518 17.516 65.6598 17.612C66.0678 17.684 66.4038 17.912 66.6678 18.296C66.9318 18.68 67.0638 19.316 67.0638 20.204C67.0638 21.02 66.9318 21.62 66.6678 22.004C66.4278 22.388 66.1038 22.64 65.6958 22.76C65.2878 22.856 64.8438 22.904 64.3638 22.904L59.6478 22.796H55.2918C54.5958 22.772 54.1038 22.568 53.8158 22.184C53.5518 21.776 53.4198 21.104 53.4198 20.168C53.4198 19.304 53.5878 18.668 53.9238 18.26C54.2598 17.828 54.7638 17.612 55.4358 17.612ZM72.0005 35.324C71.1125 35.324 70.4765 35.204 70.0925 34.964C69.7325 34.7 69.5045 34.364 69.4085 33.956C69.3365 33.524 69.3005 33.08 69.3005 32.624V20.06C69.3005 19.58 69.3365 19.136 69.4085 18.728C69.5045 18.32 69.7445 17.996 70.1285 17.756C70.5125 17.492 71.1485 17.36 72.0365 17.36C72.9005 17.36 73.5125 17.492 73.8725 17.756C74.2565 18.02 74.4845 18.356 74.5565 18.764C74.6525 19.172 74.7005 19.628 74.7005 20.132V32.66C74.7005 33.116 74.6525 33.56 74.5565 33.992C74.4845 34.4 74.2565 34.724 73.8725 34.964C73.5125 35.204 72.8885 35.324 72.0005 35.324ZM72.0005 14.732C71.0885 14.732 70.4405 14.6 70.0565 14.336C69.6725 14.072 69.4325 13.724 69.3365 13.292C69.2645 12.86 69.2285 12.404 69.2285 11.924C69.2285 11.42 69.2765 10.964 69.3725 10.556C69.4685 10.124 69.7085 9.788 70.0925 9.548C70.4765 9.284 71.1245 9.152 72.0365 9.152C72.9245 9.152 73.5605 9.284 73.9445 9.548C74.3285 9.812 74.5565 10.16 74.6285 10.592C74.7245 11.024 74.7725 11.48 74.7725 11.96C74.7725 12.44 74.7245 12.896 74.6285 13.328C74.5565 13.76 74.3285 14.108 73.9445 14.372C73.5605 14.612 72.9125 14.732 72.0005 14.732ZM86.1688 35.468C85.1128 35.468 84.0328 35.276 82.9288 34.892C81.8488 34.484 80.8408 33.896 79.9048 33.128C78.9928 32.336 78.2608 31.376 77.7088 30.248C77.1568 29.096 76.8808 27.776 76.8808 26.288C76.8808 24.8 77.1568 23.492 77.7088 22.364C78.2608 21.236 78.9928 20.288 79.9048 19.52C80.8168 18.752 81.8128 18.176 82.8928 17.792C83.9968 17.384 85.0648 17.18 86.0968 17.18C86.9848 17.18 87.7768 17.288 88.4728 17.504C89.1928 17.696 89.7928 17.936 90.2728 18.224C90.7768 18.512 91.1368 18.764 91.3528 18.98C91.7608 19.292 92.1208 19.604 92.4328 19.916C92.7448 20.228 92.8888 20.636 92.8648 21.14C92.8408 21.404 92.7568 21.68 92.6128 21.968C92.4688 22.232 92.2888 22.508 92.0728 22.796C91.3528 23.804 90.6328 24.26 89.9128 24.164C89.5528 24.092 89.2168 23.972 88.9048 23.804C88.6168 23.636 88.3288 23.468 88.0408 23.3C87.7768 23.108 87.4888 22.952 87.1768 22.832C86.8648 22.712 86.5048 22.652 86.0968 22.652C85.4008 22.652 84.7768 22.808 84.2248 23.12C83.6728 23.432 83.2288 23.864 82.8928 24.416C82.5808 24.968 82.4248 25.604 82.4248 26.324C82.4248 27.02 82.5808 27.644 82.8928 28.196C83.2288 28.748 83.6608 29.192 84.1888 29.528C84.7408 29.84 85.3528 29.996 86.0248 29.996C86.4328 29.996 86.7808 29.948 87.0688 29.852C87.3808 29.756 87.6448 29.648 87.8608 29.528C88.0768 29.384 88.2448 29.276 88.3648 29.204C88.6528 29.012 88.9288 28.844 89.1928 28.7C89.4568 28.532 89.7328 28.448 90.0208 28.448C90.3568 28.448 90.7048 28.58 91.0648 28.844C91.4248 29.084 91.8208 29.48 92.2528 30.032C92.6368 30.536 92.8528 31.004 92.9008 31.436C92.9728 31.868 92.8768 32.276 92.6128 32.66C92.3488 33.044 91.9408 33.416 91.3888 33.776C91.1968 33.944 90.8488 34.16 90.3448 34.424C89.8648 34.688 89.2648 34.928 88.5448 35.144C87.8488 35.36 87.0568 35.468 86.1688 35.468ZM104.381 35.648C102.701 35.648 101.249 35.372 100.025 34.82C98.8246 34.268 97.8406 33.548 97.0726 32.66C96.3046 31.748 95.7286 30.74 95.3446 29.636C94.9846 28.532 94.8046 27.428 94.8046 26.324C94.8046 24.524 95.2126 22.928 96.0286 21.536C96.8446 20.144 97.9726 19.052 99.4126 18.26C100.853 17.444 102.509 17.036 104.381 17.036C105.773 17.036 106.973 17.264 107.981 17.72C109.013 18.152 109.853 18.728 110.501 19.448C111.173 20.144 111.665 20.9 111.977 21.716C112.313 22.532 112.481 23.312 112.481 24.056C112.481 25.376 112.157 26.36 111.509 27.008C110.885 27.632 110.081 27.944 109.097 27.944H100.529C100.577 28.568 100.793 29.096 101.177 29.528C101.585 29.96 102.089 30.296 102.689 30.536C103.289 30.776 103.925 30.896 104.597 30.896C105.173 30.896 105.677 30.872 106.109 30.824C106.541 30.752 106.913 30.668 107.225 30.572C107.537 30.452 107.825 30.344 108.089 30.248C108.353 30.128 108.581 30.032 108.773 29.96C108.989 29.888 109.193 29.84 109.385 29.816C109.745 29.792 110.069 29.9 110.357 30.14C110.669 30.356 110.945 30.692 111.185 31.148C111.353 31.412 111.461 31.664 111.509 31.904C111.581 32.144 111.617 32.384 111.617 32.624C111.617 33.2 111.317 33.716 110.717 34.172C110.141 34.628 109.313 34.988 108.233 35.252C107.177 35.516 105.893 35.648 104.381 35.648ZM100.529 24.992H106.217C106.601 24.992 106.877 24.932 107.045 24.812C107.237 24.668 107.333 24.404 107.333 24.02C107.333 23.588 107.201 23.216 106.937 22.904C106.673 22.568 106.313 22.316 105.857 22.148C105.425 21.956 104.921 21.86 104.345 21.86C103.601 21.86 102.941 22.004 102.365 22.292C101.789 22.58 101.333 22.964 100.997 23.444C100.685 23.924 100.529 24.44 100.529 24.992Z" fill="white"/>
<path d="M10.9915 34.928L13.2576 31.6318L13.2576 31.6318L10.9915 34.928ZM10.2715 33.92L6.36675 34.7877C6.37034 34.8039 6.37404 34.82 6.37783 34.8362L10.2715 33.92ZM10.2715 11.528L14.1521 12.4981L14.1521 12.4981L10.2715 11.528ZM10.9915 10.592L13.1115 13.984C13.1293 13.9729 13.1469 13.9617 13.1645 13.9503L10.9915 10.592ZM14.7355 10.52L12.5725 13.8847C12.631 13.9223 12.6905 13.9584 12.751 13.993L14.7355 10.52ZM15.6355 11.348L18.8691 8.99338L18.8611 8.98255L15.6355 11.348ZM26.1475 25.784L22.914 28.1386C23.9336 29.5388 25.7386 30.1237 27.3856 29.5876C29.0327 29.0514 30.1475 27.5161 30.1475 25.784H26.1475ZM26.2915 11.528L22.4736 10.3349C22.4505 10.4086 22.4297 10.4829 22.4109 10.5579L26.2915 11.528ZM27.0475 10.592L29.1675 13.984C29.2169 13.9531 29.2656 13.9212 29.3136 13.8882L27.0475 10.592ZM30.7915 10.592L28.426 13.8176C28.4588 13.8416 28.4919 13.8652 28.5254 13.8882L30.7915 10.592ZM31.4755 11.636L27.5299 12.2936C27.5444 12.3803 27.5617 12.4666 27.5818 12.5522L31.4755 11.636ZM31.4755 33.92L35.3692 34.8362C35.373 34.82 35.3767 34.8039 35.3802 34.7877L31.4755 33.92ZM30.7555 34.928L33.0216 38.2242L33.0216 38.2242L30.7555 34.928ZM27.2635 35.144L25.9986 38.9387C26.0225 38.9467 26.0464 38.9544 26.0704 38.9619L27.2635 35.144ZM26.3275 34.46L23.1085 36.8344C23.1326 36.8671 23.1572 36.8994 23.1822 36.9313L26.3275 34.46ZM15.5995 19.916L18.8185 17.5416C17.793 16.1513 15.9908 15.5765 14.3497 16.1163C12.7086 16.656 11.5995 18.1884 11.5995 19.916H15.5995ZM15.4555 33.92L19.3492 34.8362C19.353 34.82 19.3567 34.8039 19.3602 34.7877L15.4555 33.92ZM14.7355 34.928L12.4694 31.6318L12.4694 31.6318L14.7355 34.928ZM12.8275 31.324C12.6015 31.324 12.5351 31.3048 12.5819 31.3149C12.6206 31.3233 12.8998 31.3858 13.2576 31.6318L8.72538 38.2242C10.1256 39.1868 11.7438 39.324 12.8275 39.324V31.324ZM13.2576 31.6318C13.4004 31.73 13.5954 31.8968 13.7784 32.153C13.9656 32.4151 14.0958 32.709 14.1652 33.0038L6.37783 34.8362C6.72768 36.323 7.62075 37.4647 8.72539 38.2242L13.2576 31.6318ZM14.1762 33.0523C14.1486 32.9281 14.1275 32.7646 14.1275 32.552H6.1275C6.1275 33.2994 6.20236 34.0479 6.36675 34.7877L14.1762 33.0523ZM14.1275 32.552V12.788H6.1275V32.552H14.1275ZM14.1275 12.788C14.1275 12.6107 14.1463 12.5211 14.1521 12.4981L6.39093 10.5579C6.20467 11.3029 6.1275 12.0533 6.1275 12.788H14.1275ZM14.1521 12.4981C14.0675 12.8362 13.911 13.1628 13.694 13.4448C13.4832 13.7188 13.2637 13.8888 13.1115 13.984L8.87151 7.2C7.74587 7.90353 6.77466 9.02294 6.39093 10.5579L14.1521 12.4981ZM13.1645 13.9503C12.9902 14.0631 12.8425 14.1283 12.747 14.1641C12.6516 14.1998 12.5919 14.2125 12.5819 14.2145C12.5711 14.2167 12.5937 14.2115 12.657 14.2061C12.7195 14.2007 12.8111 14.196 12.9355 14.196V6.196C11.8251 6.196 10.2171 6.32874 8.8185 7.23372L13.1645 13.9503ZM12.9355 14.196C13.07 14.196 13.1699 14.2003 13.2397 14.2054C13.3107 14.2106 13.3362 14.2158 13.3249 14.2137C13.3158 14.2121 13.2427 14.1988 13.1256 14.1582C13.0107 14.1184 12.8106 14.0378 12.5725 13.8847L16.8985 7.15529C15.5073 6.26095 13.8603 6.196 12.9355 6.196V14.196ZM12.751 13.993C12.531 13.8673 12.4268 13.7365 12.4099 13.7134L18.8611 8.98255C18.3162 8.23951 17.612 7.5567 16.72 7.04702L12.751 13.993ZM12.402 13.7026L22.914 28.1386L29.381 23.4294L18.869 8.9934L12.402 13.7026ZM30.1475 25.784V12.788H22.1475V25.784H30.1475ZM30.1475 12.788C30.1475 12.6107 30.1663 12.5211 30.1721 12.4981L22.4109 10.5579C22.2247 11.3029 22.1475 12.0533 22.1475 12.788H30.1475ZM30.1094 12.7211C30.0197 13.0082 29.8737 13.2824 29.6823 13.5193C29.4953 13.7509 29.3045 13.8984 29.1675 13.984L24.9275 7.2C23.8416 7.8787 22.9147 8.9234 22.4736 10.3349L30.1094 12.7211ZM29.3136 13.8882C29.1224 14.0197 28.9558 14.0975 28.8431 14.1418C28.7307 14.1859 28.6548 14.2034 28.6313 14.2084C28.5947 14.2161 28.6749 14.196 28.9195 14.196V6.196C27.8403 6.196 26.1945 6.32432 24.7814 7.29583L29.3136 13.8882ZM28.9195 14.196C29.1848 14.196 29.2685 14.2174 29.2257 14.2084C29.1984 14.2026 29.1092 14.1821 28.9786 14.1295C28.848 14.077 28.6502 13.982 28.426 13.8176L33.157 7.36638C31.7039 6.30081 29.9542 6.196 28.9195 6.196V14.196ZM28.5254 13.8882C28.3405 13.7611 28.1077 13.553 27.9047 13.2431C27.6985 12.9284 27.5803 12.5958 27.5299 12.2936L35.4211 10.9784C35.1582 9.40126 34.2725 8.13104 33.0576 7.29583L28.5254 13.8882ZM27.5818 12.5522C27.6013 12.6349 27.6195 12.7577 27.6195 12.932H35.6195C35.6195 12.1943 35.5417 11.4531 35.3692 10.7198L27.5818 12.5522ZM27.6195 12.932V32.588H35.6195V12.932H27.6195ZM27.6195 32.588C27.6195 32.761 27.6015 32.9137 27.5708 33.0523L35.3802 34.7877C35.5415 34.0623 35.6195 33.327 35.6195 32.588H27.6195ZM27.5818 33.0038C27.6512 32.709 27.7814 32.4151 27.9686 32.153C28.1516 31.8968 28.3466 31.73 28.4894 31.6318L33.0216 38.2242C34.1262 37.4647 35.0193 36.323 35.3692 34.8362L27.5818 33.0038ZM28.4894 31.6318C28.6881 31.4952 28.86 31.4161 28.9726 31.3724C29.0851 31.3287 29.1591 31.3123 29.1776 31.3085C29.2041 31.303 29.1104 31.324 28.8475 31.324V39.324C29.9229 39.324 31.5963 39.204 33.0216 38.2242L28.4894 31.6318ZM28.8475 31.324C28.625 31.324 28.4801 31.3138 28.3991 31.3046C28.3118 31.2947 28.3443 31.291 28.4566 31.3261L26.0704 38.9619C27.013 39.2565 28.0033 39.324 28.8475 39.324V31.324ZM28.5284 31.3493C29.0024 31.5073 29.316 31.7892 29.4728 31.9887L23.1822 36.9313C23.867 37.8028 24.8046 38.5407 25.9986 38.9387L28.5284 31.3493ZM29.5465 32.0856L18.8185 17.5416L12.3805 22.2904L23.1085 36.8344L29.5465 32.0856ZM11.5995 19.916V32.588H19.5995V19.916H11.5995ZM11.5995 32.588C11.5995 32.761 11.5815 32.9137 11.5508 33.0523L19.3602 34.7877C19.5215 34.0623 19.5995 33.327 19.5995 32.588H11.5995ZM11.5618 33.0038C11.6312 32.709 11.7614 32.4151 11.9486 32.153C12.1316 31.8968 12.3266 31.73 12.4694 31.6318L17.0016 38.2242C18.1062 37.4647 18.9993 36.323 19.3492 34.8362L11.5618 33.0038ZM12.4694 31.6318C12.6681 31.4952 12.84 31.4161 12.9526 31.3724C13.0651 31.3287 13.1391 31.3123 13.1576 31.3085C13.1841 31.303 13.0904 31.324 12.8275 31.324V39.324C13.9029 39.324 15.5763 39.204 17.0016 38.2242L12.4694 31.6318ZM39.9937 34.964L38.4667 38.661C38.4987 38.6743 38.5308 38.6871 38.5631 38.6994L39.9937 34.964ZM36.9697 33.056L39.6369 30.075L39.6369 30.075L36.9697 33.056ZM34.8097 30.14L31.1735 31.8066C31.1779 31.8164 31.1824 31.8261 31.187 31.8358L34.8097 30.14ZM34.7377 22.724L38.406 24.3189C38.4101 24.3094 38.4143 24.2998 38.4183 24.2902L34.7377 22.724ZM36.7537 19.736L33.9253 16.9076L33.9253 16.9076L36.7537 19.736ZM39.7057 17.72L41.3006 21.3883C41.3129 21.3829 41.3252 21.3775 41.3375 21.372L39.7057 17.72ZM47.9857 18.224L45.9191 21.6487C45.9421 21.6626 45.9652 21.6763 45.9885 21.6897L47.9857 18.224ZM51.3697 21.572L47.9295 23.6128L47.9295 23.6128L51.3697 21.572ZM51.8017 30.212L48.1945 28.4835C48.1892 28.4944 48.1841 28.5053 48.179 28.5162L51.8017 30.212ZM49.6417 33.128L46.9745 30.147C46.9614 30.1588 46.9482 30.1707 46.9352 30.1827L49.6417 33.128ZM46.6537 35L48.0673 38.7419C48.082 38.7363 48.0967 38.7307 48.1113 38.725L46.6537 35ZM45.0697 29.744L43.3388 26.1379L43.3388 26.1379L45.0697 29.744ZM46.5817 28.448L43.3176 26.1359L43.3176 26.1359L46.5817 28.448ZM46.6897 24.236L50.1448 22.2205L50.1448 22.2205L46.6897 24.236ZM45.2857 22.904L43.2702 26.3591C43.3262 26.3917 43.3829 26.423 43.4403 26.4529L45.2857 22.904ZM41.3257 22.904L39.3102 19.4489C39.2887 19.4615 39.2672 19.4742 39.2459 19.4872L41.3257 22.904ZM39.9577 24.308L36.5277 22.25C36.5193 22.2641 36.5109 22.2783 36.5026 22.2925L39.9577 24.308ZM40.0297 28.484L36.6606 30.6402C36.6944 30.693 36.7294 30.7449 36.7656 30.7961L40.0297 28.484ZM41.5417 29.78L39.8108 33.3861C39.8505 33.4051 39.8905 33.4235 39.9308 33.4413L41.5417 29.78ZM43.3777 31.612C42.7725 31.612 42.1282 31.4982 41.4243 31.2286L38.5631 38.6994C40.1152 39.2938 41.727 39.612 43.3777 39.612V31.612ZM41.5208 31.267C40.8448 30.9878 40.2204 30.5971 39.6369 30.075L34.3025 36.037C35.543 37.1469 36.9346 38.0282 38.4667 38.661L41.5208 31.267ZM39.6369 30.075C39.1341 29.6251 38.736 29.0927 38.4325 28.4442L31.187 31.8358C31.9394 33.4433 32.9814 34.8549 34.3025 36.037L39.6369 30.075ZM38.446 28.4734C38.1804 27.8939 38.0177 27.198 38.0177 26.324H30.0177C30.0177 28.234 30.383 30.0821 31.1735 31.8066L38.446 28.4734ZM38.0177 26.324C38.0177 25.5342 38.1612 24.8821 38.406 24.3189L31.0694 21.1291C30.3543 22.7739 30.0177 24.5218 30.0177 26.324H38.0177ZM38.4183 24.2902C38.6984 23.6321 39.0816 23.0649 39.5821 22.5644L33.9253 16.9076C32.6978 18.1351 31.737 19.5599 31.0571 21.1578L38.4183 24.2902ZM39.5821 22.5644C40.0967 22.0498 40.6638 21.6651 41.3006 21.3883L38.1108 14.0517C36.5396 14.7349 35.1387 15.6942 33.9253 16.9076L39.5821 22.5644ZM41.3375 21.372C41.9367 21.1043 42.579 20.964 43.3057 20.964V12.964C41.4884 12.964 39.7307 13.3277 38.074 14.068L41.3375 21.372ZM43.3057 20.964C44.353 20.964 45.1903 21.209 45.9191 21.6487L50.0524 14.7992C47.9971 13.559 45.7145 12.964 43.3057 12.964V20.964ZM45.9885 21.6897C46.8045 22.1599 47.4374 22.7833 47.9295 23.6128L54.8099 19.5312C53.622 17.5287 51.999 15.9201 49.9829 14.7583L45.9885 21.6897ZM47.9295 23.6128C48.3846 24.38 48.6297 25.2411 48.6297 26.288H56.6297C56.6297 23.8789 56.0348 21.596 54.8099 19.5312L47.9295 23.6128ZM48.6297 26.288C48.6297 27.2412 48.4526 27.9447 48.1945 28.4835L55.409 31.9405C56.2548 30.1753 56.6297 28.2628 56.6297 26.288H48.6297ZM48.179 28.5162C47.8754 29.1647 47.4774 29.6971 46.9745 30.147L52.3089 36.109C53.6301 34.9269 54.672 33.5153 55.4245 31.9078L48.179 28.5162ZM46.9352 30.1827C46.4053 30.6697 45.8311 31.0266 45.1961 31.275L48.1113 38.725C49.6843 38.1094 51.1022 37.2183 52.3482 36.0733L46.9352 30.1827ZM45.2401 31.2581C44.5909 31.5034 43.9769 31.612 43.3777 31.612V39.612C44.9865 39.612 46.5565 39.3126 48.0673 38.7419L45.2401 31.2581ZM43.3057 34.176C44.5674 34.176 45.7443 33.8571 46.8006 33.3501L43.3388 26.1379C43.2639 26.1739 43.2274 26.1828 43.2272 26.1828C43.227 26.1829 43.2345 26.181 43.2489 26.1793C43.2633 26.1775 43.2826 26.176 43.3057 26.176V34.176ZM46.8006 33.3501C48.0506 32.7501 49.0696 31.8559 49.8458 30.7601L43.3176 26.1359C43.304 26.1552 43.295 26.1656 43.2916 26.1693C43.2883 26.173 43.2892 26.1716 43.2946 26.167C43.3 26.1623 43.3075 26.1565 43.3166 26.1506C43.3257 26.1446 43.3336 26.1404 43.3388 26.1379L46.8006 33.3501ZM49.8458 30.7601C50.8435 29.3516 51.1937 27.7532 51.1937 26.252H43.1937C43.1937 26.3925 43.1774 26.4298 43.1876 26.3932C43.1929 26.3741 43.2044 26.3386 43.2264 26.2916C43.2486 26.2441 43.2787 26.1909 43.3176 26.1359L49.8458 30.7601ZM51.1937 26.252C51.1937 24.8848 50.8889 23.496 50.1448 22.2205L43.2346 26.2515C43.2208 26.2277 43.2096 26.2046 43.2013 26.1839C43.1929 26.1632 43.1888 26.1486 43.1871 26.1421C43.1838 26.1286 43.1937 26.1601 43.1937 26.252H51.1937ZM50.1448 22.2205C49.4223 20.9818 48.3918 20.0107 47.1311 19.3551L43.4403 26.4529C43.4251 26.445 43.3834 26.42 43.3337 26.3729C43.2837 26.3254 43.251 26.2796 43.2346 26.2515L50.1448 22.2205ZM47.3012 19.4489C46.0257 18.7049 44.6369 18.4 43.2697 18.4V26.4C43.3617 26.4 43.3931 26.4099 43.3796 26.4066C43.3732 26.405 43.3585 26.4008 43.3379 26.3925C43.3171 26.3841 43.294 26.373 43.2702 26.3591L47.3012 19.4489ZM43.2697 18.4C41.8999 18.4 40.5465 18.7277 39.3102 19.4489L43.3412 26.3591C43.328 26.3668 43.312 26.3749 43.2942 26.3822C43.2764 26.3895 43.2603 26.3947 43.2476 26.398C43.22 26.4051 43.223 26.4 43.2697 26.4V18.4ZM39.2459 19.4872C38.0954 20.1875 37.1929 21.1415 36.5277 22.25L43.3877 26.366C43.404 26.3388 43.4165 26.3213 43.4242 26.3112C43.4318 26.3013 43.4354 26.2976 43.4346 26.2985C43.4338 26.2993 43.4302 26.3029 43.424 26.3079C43.4177 26.3128 43.4113 26.3173 43.4055 26.3208L39.2459 19.4872ZM36.5026 22.2925C35.7697 23.5489 35.4537 24.9197 35.4537 26.288H43.4537C43.4537 26.2184 43.4614 26.201 43.4561 26.2217C43.4536 26.2314 43.449 26.2468 43.4411 26.2661C43.4332 26.2855 43.4236 26.305 43.4128 26.3235L36.5026 22.2925ZM35.4537 26.288C35.4537 27.7524 35.7844 29.2711 36.6606 30.6402L43.3988 26.3278C43.4208 26.3622 43.4374 26.3944 43.4491 26.4216C43.4608 26.4485 43.4657 26.4658 43.4668 26.4701C43.469 26.4783 43.4537 26.4249 43.4537 26.288H35.4537ZM36.7656 30.7961C37.5418 31.8919 38.5608 32.7861 39.8108 33.3861L43.2726 26.1739C43.2779 26.1764 43.2857 26.1806 43.2948 26.1866C43.3039 26.1925 43.3115 26.1983 43.3169 26.203C43.3222 26.2076 43.3232 26.209 43.3199 26.2053C43.3165 26.2016 43.3075 26.1912 43.2938 26.1719L36.7656 30.7961ZM39.9308 33.4413C40.9686 33.8979 42.1035 34.176 43.3057 34.176V26.176C43.3257 26.176 43.3286 26.1786 43.3089 26.1741C43.2879 26.1694 43.2366 26.1557 43.1527 26.1187L39.9308 33.4413ZM60.4038 34.928L59.2349 38.7534C59.2445 38.7564 59.2542 38.7593 59.2639 38.7621L60.4038 34.928ZM56.9478 31.616L53.1223 32.7849C53.1355 32.8279 53.1494 32.8707 53.164 32.9133L56.9478 31.616ZM56.6598 12.644L52.7792 11.6739C52.7599 11.751 52.7429 11.8287 52.7283 11.9068L56.6598 12.644ZM57.3798 11.708L59.4997 15.1C59.5491 15.0691 59.5979 15.0372 59.6459 15.0042L57.3798 11.708ZM61.1238 11.708L58.8576 15.0042L58.8576 15.0042L61.1238 11.708ZM61.8078 12.716L57.8686 13.4111C57.8817 13.4852 57.8969 13.5589 57.9141 13.6322L61.8078 12.716ZM62.0238 29.312L58.0883 30.0275C58.1149 30.174 58.1497 30.3188 58.1924 30.4614L62.0238 29.312ZM65.0118 30.32L65.9279 26.4263L65.9279 26.4263L65.0118 30.32ZM65.9478 30.968L62.583 33.131C62.6183 33.1859 62.6549 33.2399 62.6928 33.293L65.9478 30.968ZM65.9118 34.532L62.6156 32.2659L62.6156 32.2659L65.9118 34.532ZM64.8678 35.216L64.2102 31.2704C64.1976 31.2725 64.1851 31.2747 64.1726 31.2769L64.8678 35.216ZM59.3958 17.612V21.612C59.4344 21.612 59.473 21.6114 59.5116 21.6103L59.3958 17.612ZM64.3638 17.468V13.468C64.3251 13.468 64.2865 13.4686 64.2479 13.4697L64.3638 17.468ZM65.6598 17.612L64.7436 21.5057C64.8168 21.5229 64.8905 21.5381 64.9646 21.5511L65.6598 17.612ZM66.6678 18.296L63.3716 20.5621L63.3716 20.5621L66.6678 18.296ZM66.6678 22.004L63.3716 19.7379C63.3386 19.7859 63.3066 19.8346 63.2758 19.884L66.6678 22.004ZM65.6958 22.76L66.6119 26.6537C66.6832 26.6369 66.7541 26.6181 66.8244 26.5975L65.6958 22.76ZM64.3638 22.904L64.2722 26.903C64.3027 26.9036 64.3332 26.904 64.3638 26.904L64.3638 22.904ZM59.6478 22.796L59.7393 18.797C59.7088 18.7963 59.6783 18.796 59.6478 18.796L59.6478 22.796ZM55.2918 22.796L55.1539 26.7936C55.1998 26.7952 55.2458 26.796 55.2918 26.796L55.2918 22.796ZM53.8158 22.184L50.4575 24.357C50.5076 24.4345 50.5604 24.5102 50.6157 24.584L53.8158 22.184ZM53.9238 18.26L57.0115 20.8028C57.0351 20.7741 57.0583 20.7451 57.0812 20.7158L53.9238 18.26ZM63.5718 31.324C62.6177 31.324 61.9649 31.2191 61.5436 31.0939L59.2639 38.7621C60.6186 39.1649 62.0778 39.324 63.5718 39.324V31.324ZM61.5726 31.1026C61.2277 30.9972 61.0785 30.8804 61.0114 30.816L55.4761 36.592C56.561 37.6316 57.8519 38.3308 59.2349 38.7534L61.5726 31.1026ZM61.0114 30.816C60.9462 30.7536 60.8363 30.6243 60.7315 30.3187L53.164 32.9133C53.6352 34.2877 54.3893 35.5504 55.4761 36.592L61.0114 30.816ZM60.7732 30.4471C60.6537 30.0563 60.5518 29.4484 60.5518 28.556H52.5518C52.5518 30.0156 52.7138 31.4477 53.1223 32.7849L60.7732 30.4471ZM60.5518 28.556V13.94H52.5518V28.556H60.5518ZM60.5518 13.94C60.5518 13.6536 60.5737 13.4745 60.5912 13.3812L52.7283 11.9068C52.6018 12.5815 52.5518 13.2664 52.5518 13.94H60.5518ZM60.5403 13.6141C60.4558 13.9522 60.2992 14.2788 60.0822 14.5608C59.8715 14.8348 59.652 15.0049 59.4997 15.1L55.2598 8.31601C54.1341 9.01952 53.1629 10.1389 52.7792 11.6739L60.5403 13.6141ZM59.6459 15.0042C59.4546 15.1357 59.2881 15.2135 59.1754 15.2578C59.063 15.3019 58.9871 15.3194 58.9636 15.3244C58.927 15.3321 59.0071 15.312 59.2518 15.312V7.312C58.1726 7.312 56.5267 7.44032 55.1136 8.41184L59.6459 15.0042ZM59.2518 15.312C59.4964 15.312 59.5765 15.3321 59.5399 15.3244C59.5164 15.3194 59.4405 15.3019 59.3281 15.2578C59.2154 15.2135 59.0489 15.1357 58.8576 15.0042L63.3899 8.41184C61.9768 7.44032 60.3309 7.312 59.2518 7.312V15.312ZM58.8576 15.0042C58.6993 14.8953 58.4765 14.7041 58.2728 14.404C58.0635 14.0955 57.9286 13.7511 57.8686 13.4111L65.7469 12.0209C65.4645 10.4206 64.537 9.20049 63.3899 8.41183L58.8576 15.0042ZM57.9141 13.6322C57.9301 13.7002 57.9518 13.8329 57.9518 14.048H65.9518C65.9518 13.3031 65.8774 12.5478 65.7014 11.7998L57.9141 13.6322ZM57.9518 14.048V28.34H65.9518V14.048H57.9518ZM57.9518 28.34C57.9518 28.8708 57.9834 29.4507 58.0883 30.0275L65.9592 28.5965C65.9651 28.6287 65.9625 28.6248 65.9588 28.5755C65.9553 28.5276 65.9518 28.4505 65.9518 28.34H57.9518ZM58.1924 30.4614C58.3707 31.0556 58.7249 31.922 59.4833 32.6804L65.1402 27.0236C65.6586 27.542 65.8208 28.0484 65.8551 28.1626L58.1924 30.4614ZM59.4833 32.6804C60.282 33.4792 61.2112 33.845 61.948 34.0087L63.6835 26.1993C63.9883 26.267 64.5815 26.4648 65.1402 27.0236L59.4833 32.6804ZM61.948 34.0087C62.5384 34.1399 63.1126 34.176 63.6078 34.176V26.176C63.5522 26.176 63.5307 26.1738 63.5379 26.1744C63.5422 26.1748 63.5567 26.1762 63.5801 26.1798C63.6034 26.1833 63.6384 26.1892 63.6835 26.1993L61.948 34.0087ZM63.6078 34.176C63.903 34.176 64.0536 34.2038 64.0956 34.2137L65.9279 26.4263C65.1539 26.2442 64.3685 26.176 63.6078 26.176V34.176ZM64.0956 34.2137C63.8631 34.159 63.5716 34.0481 63.2749 33.8428C62.9751 33.6352 62.7447 33.3826 62.583 33.131L69.3125 28.805C68.5056 27.5499 67.2905 26.7469 65.9279 26.4263L64.0956 34.2137ZM62.6928 33.293C62.5379 33.0761 62.4452 32.883 62.3913 32.7483C62.3376 32.6139 62.3141 32.5169 62.3053 32.4754C62.2901 32.4038 62.3078 32.448 62.3078 32.66H70.3078C70.3078 31.6843 70.2026 30.0429 69.2027 28.643L62.6928 33.293ZM62.3078 32.66C62.3078 32.9046 62.2876 32.9848 62.2954 32.9482C62.3003 32.9247 62.3178 32.8488 62.362 32.7364C62.4063 32.6237 62.4841 32.4571 62.6156 32.2659L69.2079 36.7981C70.1794 35.385 70.3078 33.7392 70.3078 32.66H62.3078ZM62.6156 32.2659C62.7427 32.081 62.9508 31.8482 63.2606 31.6452C63.5753 31.439 63.908 31.3208 64.2102 31.2704L65.5253 39.1616C67.1025 38.8987 68.3727 38.013 69.2079 36.7981L62.6156 32.2659ZM64.1726 31.2769C64.0157 31.3046 63.8177 31.324 63.5718 31.324V39.324C64.2378 39.324 64.9038 39.2714 65.5629 39.1551L64.1726 31.2769ZM55.4358 21.612H59.3958V13.612H55.4358V21.612ZM59.5116 21.6103L64.4796 21.4663L64.2479 13.4697L59.2799 13.6137L59.5116 21.6103ZM64.3638 21.468C64.5381 21.468 64.6609 21.4862 64.7436 21.5057L66.5759 13.7183C65.8426 13.5458 65.1014 13.468 64.3638 13.468V21.468ZM64.9646 21.5511C64.6247 21.4911 64.2802 21.3562 63.9717 21.1469C63.6717 20.9433 63.4805 20.7205 63.3716 20.5621L69.9639 16.0299C69.1753 14.8827 67.9552 13.9553 66.3549 13.6729L64.9646 21.5511ZM63.3716 20.5621C63.2349 20.3634 63.1559 20.1915 63.1122 20.0789C63.0685 19.9664 63.0521 19.8924 63.0482 19.8739C63.0427 19.8474 63.0638 19.9411 63.0638 20.204H71.0638C71.0638 19.1286 70.9438 17.4551 69.9639 16.0299L63.3716 20.5621ZM63.0638 20.204C63.0638 20.411 63.0457 20.4634 63.0582 20.4066C63.0696 20.3547 63.1344 20.0828 63.3716 19.7379L69.9639 24.2701C70.9172 22.8835 71.0638 21.293 71.0638 20.204H63.0638ZM63.2758 19.884C63.3789 19.7189 63.5441 19.514 63.789 19.3236C64.0371 19.1306 64.3077 18.9988 64.5671 18.9225L66.8244 26.5975C68.2358 26.1823 69.3375 25.2796 70.0597 24.124L63.2758 19.884ZM64.7796 18.8663C64.7115 18.8823 64.5789 18.904 64.3638 18.904V26.904C65.1086 26.904 65.864 26.8297 66.6119 26.6537L64.7796 18.8663ZM64.4553 18.905L59.7393 18.797L59.5562 26.795L64.2722 26.903L64.4553 18.905ZM59.6478 18.796H55.2918V26.796H59.6478V18.796ZM55.4296 18.7984C55.4322 18.7985 55.4794 18.8001 55.5619 18.8159C55.6448 18.8319 55.7739 18.8642 55.9328 18.93C56.2742 19.0716 56.6839 19.3415 57.0158 19.784L50.6157 24.584C51.9127 26.3133 53.8139 26.7474 55.1539 26.7936L55.4296 18.7984ZM57.174 20.011C57.2959 20.1993 57.3632 20.3566 57.398 20.4515C57.4329 20.5467 57.4436 20.6025 57.4437 20.603C57.4441 20.6047 57.4374 20.5707 57.4311 20.4932C57.4248 20.4167 57.4198 20.3096 57.4198 20.168H49.4198C49.4198 21.2758 49.5379 22.9358 50.4575 24.357L57.174 20.011ZM57.4198 20.168C57.4198 19.9798 57.4397 19.9639 57.4131 20.0646C57.3849 20.1713 57.2881 20.4669 57.0115 20.8028L50.836 15.7172C49.6374 17.1727 49.4198 18.9228 49.4198 20.168H57.4198ZM57.0812 20.7158C56.8328 21.035 56.4982 21.2925 56.1294 21.4506C55.7847 21.5983 55.5225 21.612 55.4358 21.612V13.612C53.8412 13.612 52.033 14.1757 50.7663 15.8042L57.0812 20.7158ZM70.0925 34.964L67.7271 38.1896C67.8068 38.2481 67.8887 38.3036 67.9725 38.356L70.0925 34.964ZM69.4085 33.956L65.463 34.6136C65.4774 34.7003 65.4947 34.7866 65.5149 34.8722L69.4085 33.956ZM69.4085 18.728L65.5149 17.8118C65.4976 17.8851 65.4825 17.9588 65.4694 18.0329L69.4085 18.728ZM70.1285 17.756L72.2485 21.148C72.2979 21.1171 72.3466 21.0852 72.3946 21.0522L70.1285 17.756ZM73.8725 17.756L71.5071 20.9816C71.5398 21.0056 71.5729 21.0292 71.6064 21.0522L73.8725 17.756ZM74.5565 18.764L70.6174 19.4591C70.6305 19.5332 70.6456 19.6069 70.6629 19.6802L74.5565 18.764ZM74.5565 33.992L70.6518 33.1243C70.6391 33.1815 70.6276 33.2391 70.6174 33.2969L74.5565 33.992ZM73.8725 34.964L71.7525 31.572C71.7193 31.5928 71.6864 31.6141 71.6537 31.6358L73.8725 34.964ZM70.0565 14.336L67.7904 17.6322L67.7904 17.6322L70.0565 14.336ZM69.3365 13.292L65.391 13.9496C65.4027 14.02 65.4163 14.0901 65.4318 14.1597L69.3365 13.292ZM69.3725 10.556L73.2662 11.4722C73.27 11.456 73.2737 11.4399 73.2773 11.4237L69.3725 10.556ZM70.0925 9.548L72.2125 12.94C72.2619 12.9091 72.3106 12.8772 72.3587 12.8442L70.0925 9.548ZM73.9445 9.548L71.6784 12.8442L71.6784 12.8442L73.9445 9.548ZM74.6285 10.592L70.683 11.2496C70.6947 11.32 70.7083 11.3901 70.7238 11.4597L74.6285 10.592ZM74.6285 13.328L70.7238 12.4603C70.7083 12.5299 70.6947 12.6 70.683 12.6704L74.6285 13.328ZM73.9445 14.372L76.0645 17.764C76.1139 17.7331 76.1626 17.7012 76.2107 17.6682L73.9445 14.372ZM72.0005 31.324C71.867 31.324 71.7667 31.3194 71.6958 31.3138C71.6239 31.3082 71.5942 31.3024 71.5992 31.3034C71.6028 31.304 71.6613 31.315 71.7591 31.3495C71.8561 31.3838 72.0179 31.4504 72.2125 31.572L67.9725 38.356C69.3577 39.2217 70.9603 39.324 72.0005 39.324V31.324ZM72.458 31.7384C72.6099 31.8498 72.7946 32.0222 72.9614 32.268C73.1304 32.517 73.2421 32.7842 73.3022 33.0398L65.5149 34.8722C65.8439 36.2707 66.6531 37.402 67.7271 38.1896L72.458 31.7384ZM73.3541 33.2984C73.3198 33.0925 73.3005 32.8687 73.3005 32.624H65.3005C65.3005 33.2913 65.3533 33.9555 65.463 34.6136L73.3541 33.2984ZM73.3005 32.624V20.06H65.3005V32.624H73.3005ZM73.3005 20.06C73.3005 19.7773 73.3219 19.569 73.3477 19.4231L65.4694 18.0329C65.3511 18.703 65.3005 19.3827 65.3005 20.06H73.3005ZM73.3022 19.6442C73.2307 19.9481 73.0913 20.2676 72.8748 20.5599C72.6621 20.847 72.4293 21.035 72.2485 21.148L68.0085 14.364C66.8093 15.1136 65.8731 16.2894 65.5149 17.8118L73.3022 19.6442ZM72.3946 21.0522C72.1959 21.1888 72.024 21.2679 71.9114 21.3116C71.7989 21.3553 71.725 21.3717 71.7064 21.3755C71.6799 21.381 71.7736 21.36 72.0365 21.36V13.36C70.9611 13.36 69.2877 13.48 67.8624 14.4598L72.3946 21.0522ZM72.0365 21.36C72.2836 21.36 72.3534 21.3806 72.3002 21.3691C72.2677 21.3621 72.1766 21.3403 72.0461 21.2871C71.9152 21.2338 71.7232 21.1401 71.5071 20.9816L76.238 14.5304C74.797 13.4736 73.0765 13.36 72.0365 13.36V21.36ZM71.6064 21.0522C71.448 20.9433 71.2253 20.7521 71.0216 20.452C70.8123 20.1435 70.6774 19.7991 70.6174 19.4591L78.4957 18.0689C78.2133 16.4686 77.2858 15.2485 76.1386 14.4598L71.6064 21.0522ZM70.6629 19.6802C70.6757 19.7347 70.7005 19.8766 70.7005 20.132H78.7005C78.7005 19.3794 78.6294 18.6093 78.4502 17.8478L70.6629 19.6802ZM70.7005 20.132V32.66H78.7005V20.132H70.7005ZM70.7005 32.66C70.7005 32.833 70.6826 32.9857 70.6518 33.1243L78.4613 34.8597C78.6225 34.1343 78.7005 33.399 78.7005 32.66H70.7005ZM70.6174 33.2969C70.6786 32.9498 70.821 32.5792 71.0603 32.239C71.2943 31.9065 71.5562 31.6947 71.7525 31.572L75.9925 38.356C77.2375 37.5779 78.2071 36.3223 78.4957 34.6871L70.6174 33.2969ZM71.6537 31.6358C71.8756 31.4879 72.0643 31.4069 72.1787 31.365C72.2942 31.3228 72.3672 31.3083 72.3791 31.306C72.3928 31.3034 72.3695 31.3086 72.3006 31.314C72.2328 31.3194 72.1342 31.324 72.0005 31.324V39.324C73.0002 39.324 74.6756 39.236 76.0913 38.2922L71.6537 31.6358ZM72.0005 10.732C71.8673 10.732 71.7696 10.7271 71.7033 10.7215C71.6359 10.7158 71.614 10.7105 71.6289 10.7135C71.6426 10.7163 71.7146 10.7316 71.827 10.7747C71.9393 10.8178 72.1164 10.8981 72.3226 11.0398L67.7904 17.6322C69.2272 18.62 70.9281 18.732 72.0005 18.732V10.732ZM72.3227 11.0398C72.4914 11.1559 72.6975 11.3395 72.8814 11.6061C73.0674 11.8758 73.1829 12.1614 73.2413 12.4243L65.4318 14.1597C65.7597 15.6354 66.6214 16.8284 67.7904 17.6322L72.3227 11.0398ZM73.2821 12.6344C73.2496 12.4393 73.2285 12.2044 73.2285 11.924H65.2285C65.2285 12.6036 65.2795 13.2807 65.391 13.9496L73.2821 12.6344ZM73.2285 11.924C73.2285 11.6685 73.2534 11.5267 73.2662 11.4722L65.4789 9.63984C65.2997 10.4013 65.2285 11.1714 65.2285 11.924H73.2285ZM73.2773 11.4237C73.2172 11.6941 73.0936 12.0051 72.8795 12.305C72.6665 12.6031 72.4219 12.8091 72.2125 12.94L67.9725 6.15601C66.7031 6.94939 65.8024 8.18264 65.4678 9.68828L73.2773 11.4237ZM72.3587 12.8442C72.1524 12.9859 71.9753 13.0662 71.863 13.1092C71.7506 13.1524 71.6786 13.1677 71.665 13.1705C71.65 13.1735 71.6719 13.1682 71.7393 13.1625C71.8056 13.1569 71.9033 13.152 72.0365 13.152V5.152C70.9641 5.152 69.2632 5.26404 67.8264 6.25184L72.3587 12.8442ZM72.0365 13.152C72.2994 13.152 72.3932 13.173 72.3667 13.1675C72.3481 13.1637 72.2741 13.1473 72.1616 13.1036C72.049 13.0599 71.8772 12.9808 71.6784 12.8442L76.2107 6.25184C74.7854 5.27196 73.112 5.152 72.0365 5.152V13.152ZM71.6784 12.8442C71.4935 12.7171 71.2607 12.509 71.0577 12.1991C70.8515 11.8844 70.7333 11.5518 70.683 11.2496L78.5741 9.9344C78.3113 8.35726 77.4255 7.08704 76.2106 6.25183L71.6784 12.8442ZM70.7238 11.4597C70.7514 11.5839 70.7725 11.7474 70.7725 11.96H78.7725C78.7725 11.2126 78.6977 10.464 78.5333 9.72428L70.7238 11.4597ZM70.7725 11.96C70.7725 12.1726 70.7514 12.336 70.7238 12.4603L78.5333 14.1957C78.6977 13.456 78.7725 12.7074 78.7725 11.96H70.7725ZM70.683 12.6704C70.7333 12.3682 70.8515 12.0356 71.0577 11.7209C71.2607 11.411 71.4935 11.2029 71.6784 11.0758L76.2107 17.6682C77.4255 16.833 78.3113 15.5627 78.5741 13.9856L70.683 12.6704ZM71.8245 10.98C72.0264 10.8538 72.1932 10.7863 72.2895 10.7527C72.3398 10.7352 72.3784 10.7243 72.4029 10.718C72.4274 10.7116 72.4411 10.7091 72.4422 10.7089C72.4425 10.7088 72.4071 10.7152 72.3282 10.7213C72.2504 10.7273 72.1424 10.732 72.0005 10.732V18.732C73.0399 18.732 74.6688 18.6363 76.0645 17.764L71.8245 10.98ZM82.9288 34.892L81.5152 38.6339C81.5482 38.6464 81.5814 38.6584 81.6147 38.67L82.9288 34.892ZM79.9048 33.128L77.282 36.1481C77.3102 36.1726 77.3387 36.1966 77.3675 36.2203L79.9048 33.128ZM77.7088 30.248L74.1015 31.9765C74.1063 31.9864 74.1111 31.9963 74.1159 32.0062L77.7088 30.248ZM77.7088 22.364L81.3016 24.1222L81.3016 24.1222L77.7088 22.364ZM79.9048 19.52L82.4813 22.5796L82.4813 22.5796L79.9048 19.52ZM82.8928 17.792L84.2328 21.5609C84.2484 21.5553 84.2639 21.5497 84.2794 21.544L82.8928 17.792ZM88.4728 17.504L87.2872 21.3243C87.3385 21.3402 87.3902 21.3551 87.4421 21.3689L88.4728 17.504ZM90.2728 18.224L88.2148 21.654C88.2391 21.6686 88.2636 21.6829 88.2882 21.697L90.2728 18.224ZM91.3528 18.98L88.5244 21.8084C88.6494 21.9334 88.7825 22.05 88.923 22.1574L91.3528 18.98ZM92.8648 21.14L96.8484 21.5021C96.8536 21.4449 96.8575 21.3876 96.8603 21.3303L92.8648 21.14ZM92.6128 21.968L96.1244 23.8834C96.1472 23.8416 96.1692 23.7994 96.1905 23.7569L92.6128 21.968ZM92.0728 22.796L88.8728 20.396C88.8542 20.4208 88.8359 20.4458 88.8178 20.471L92.0728 22.796ZM89.9128 24.164L89.1283 28.0863C89.2131 28.1033 89.2984 28.1175 89.3841 28.1289L89.9128 24.164ZM88.9048 23.804L86.8893 27.2591C86.9286 27.282 86.9683 27.3043 87.0084 27.3259L88.9048 23.804ZM88.0408 23.3L85.6881 26.5349C85.7967 26.6139 85.9093 26.6874 86.0253 26.7551L88.0408 23.3ZM87.1768 22.832L88.6127 19.0986L88.6127 19.0986L87.1768 22.832ZM84.2248 23.12L86.193 26.6023L86.193 26.6022L84.2248 23.12ZM82.8928 24.416L79.476 22.3362C79.4536 22.373 79.4317 22.4102 79.4105 22.4478L82.8928 24.416ZM82.8928 28.196L79.4105 30.1642C79.4317 30.2018 79.4536 30.239 79.476 30.2758L82.8928 28.196ZM84.1888 29.528L82.0413 32.9026C82.1001 32.9401 82.1599 32.976 82.2206 33.0103L84.1888 29.528ZM87.0688 29.852L85.8924 26.0289C85.8628 26.038 85.8333 26.0475 85.8039 26.0573L87.0688 29.852ZM87.8608 29.528L89.8034 33.0246C89.8977 32.9722 89.9898 32.916 90.0796 32.8562L87.8608 29.528ZM88.3648 29.204L90.4228 32.634C90.4772 32.6013 90.5308 32.5674 90.5836 32.5322L88.3648 29.204ZM89.1928 28.7L91.1082 32.2116C91.1871 32.1686 91.2645 32.1229 91.3403 32.0746L89.1928 28.7ZM91.0648 28.844L88.6993 32.0696C88.7474 32.1049 88.7963 32.1391 88.846 32.1722L91.0648 28.844ZM92.2528 30.032L95.4345 27.6078C95.424 27.5941 95.4135 27.5804 95.4028 27.5668L92.2528 30.032ZM92.9008 31.436L88.9252 31.8777C88.9333 31.9499 88.9433 32.0219 88.9552 32.0936L92.9008 31.436ZM92.6128 32.66L89.3166 30.3939L89.3166 30.3939L92.6128 32.66ZM91.3888 33.776L89.2037 30.4256C89.0463 30.5282 88.8962 30.6419 88.7548 30.7657L91.3888 33.776ZM90.3448 34.424L88.4888 30.8807C88.4647 30.8933 88.4409 30.9061 88.4171 30.9191L90.3448 34.424ZM88.5448 35.144L87.3954 31.3127C87.3833 31.3163 87.3712 31.32 87.3592 31.3237L88.5448 35.144ZM86.1688 31.468C85.6053 31.468 84.9692 31.3667 84.2429 31.114L81.6147 38.67C83.0963 39.1853 84.6202 39.468 86.1688 39.468V31.468ZM84.3424 31.1501C83.6893 30.9034 83.0579 30.541 82.442 30.0357L77.3675 36.2203C78.6237 37.251 80.0082 38.0646 81.5152 38.6339L84.3424 31.1501ZM82.5275 30.1079C82.0362 29.6812 81.6276 29.1559 81.3016 28.4898L74.1159 32.0062C74.8939 33.5961 75.9493 34.9908 77.282 36.1481L82.5275 30.1079ZM81.316 28.5195C81.0619 27.9891 80.8808 27.2759 80.8808 26.288H72.8808C72.8808 28.2761 73.2517 30.2029 74.1015 31.9765L81.316 28.5195ZM80.8808 26.288C80.8808 25.2976 81.0627 24.6106 81.3016 24.1222L74.1159 20.6058C73.2509 22.3734 72.8808 24.3024 72.8808 26.288H80.8808ZM81.3016 24.1222C81.6224 23.4668 82.0175 22.9703 82.4813 22.5796L77.3282 16.4604C75.9681 17.6057 74.8992 19.0052 74.1159 20.6058L81.3016 24.1222ZM82.4813 22.5796C83.0419 22.1076 83.6222 21.778 84.2328 21.5609L81.5527 14.0231C80.0034 14.574 78.5917 15.3964 77.3282 16.4604L82.4813 22.5796ZM84.2794 21.544C85.0011 21.2773 85.5995 21.18 86.0968 21.18V13.18C84.53 13.18 82.9925 13.4907 81.5062 14.04L84.2794 21.544ZM86.0968 21.18C86.6673 21.18 87.0482 21.2501 87.2872 21.3243L89.6584 13.6837C88.5053 13.3259 87.3023 13.18 86.0968 13.18V21.18ZM87.4421 21.3689C87.9125 21.4944 88.1411 21.6097 88.2148 21.654L92.3308 14.794C91.4445 14.2623 90.473 13.8976 89.5034 13.6391L87.4421 21.3689ZM88.2882 21.697C88.4656 21.7983 88.5728 21.868 88.6269 21.9059C88.6525 21.9238 88.6555 21.9271 88.6414 21.9157C88.6285 21.9052 88.5855 21.8696 88.5244 21.8084L94.1812 16.1516C93.5803 15.5507 92.8459 15.0873 92.2573 14.751L88.2882 21.697ZM88.923 22.1574C89.2127 22.379 89.4357 22.5757 89.6044 22.7444L95.2612 17.0876C94.8059 16.6323 94.3089 16.205 93.7826 15.8026L88.923 22.1574ZM89.6044 22.7444C89.3467 22.4867 89.1336 22.1579 89.0028 21.7873C88.8765 21.4293 88.8607 21.1299 88.8693 20.9497L96.8603 21.3303C96.9294 19.8788 96.4881 18.3145 95.2612 17.0876L89.6044 22.7444ZM88.8812 20.7779C88.9109 20.4511 89.0026 20.2442 89.0351 20.1791L96.1905 23.7569C96.511 23.1158 96.7706 22.3569 96.8484 21.5021L88.8812 20.7779ZM89.1012 20.0526C89.0651 20.1187 88.9951 20.2329 88.8728 20.396L95.2728 25.196C95.5824 24.7831 95.8724 24.3453 96.1244 23.8834L89.1012 20.0526ZM88.8178 20.471C88.6334 20.7293 88.626 20.6582 88.8526 20.5147C88.9808 20.4335 89.1921 20.3246 89.4826 20.2519C89.7816 20.1772 90.11 20.1549 90.4414 20.1991L89.3841 28.1289C92.4037 28.5315 94.3804 26.4473 95.3277 25.121L88.8178 20.471ZM90.6972 20.2417C90.7022 20.2427 90.716 20.2458 90.7361 20.253C90.7564 20.2603 90.7787 20.27 90.8012 20.2821L87.0084 27.3259C87.6816 27.6884 88.394 27.9395 89.1283 28.0863L90.6972 20.2417ZM90.9203 20.3489C90.6323 20.1809 90.3443 20.0129 90.0563 19.8449L86.0253 26.7551C86.3133 26.9231 86.6013 27.0911 86.8893 27.2591L90.9203 20.3489ZM90.3935 20.0651C89.8402 19.6627 89.2429 19.341 88.6127 19.0986L85.7409 26.5654C85.7393 26.5648 85.7323 26.5619 85.7216 26.5562C85.7109 26.5504 85.6994 26.5431 85.6881 26.5349L90.3935 20.0651ZM88.6127 19.0986C87.7538 18.7683 86.8907 18.652 86.0968 18.652V26.652C86.1188 26.652 85.9758 26.6557 85.7409 26.5654L88.6127 19.0986ZM86.0968 18.652C84.7801 18.652 83.4664 18.9539 82.2566 19.6377L86.193 26.6022C86.1737 26.6131 86.1528 26.6232 86.1313 26.6318C86.1098 26.6403 86.0912 26.646 86.0769 26.6496C86.0468 26.6571 86.0492 26.652 86.0968 26.652V18.652ZM82.2566 19.6377C81.0981 20.2925 80.1601 21.2124 79.476 22.3362L86.3096 26.4958C86.31 26.4951 86.2968 26.5161 86.2672 26.5449C86.2373 26.574 86.2089 26.5932 86.193 26.6023L82.2566 19.6377ZM79.4105 22.4478C78.7153 23.6778 78.4248 25.0092 78.4248 26.324H86.4248C86.4248 26.2536 86.4323 26.2369 86.4266 26.2599C86.4239 26.271 86.4187 26.2889 86.4097 26.3118C86.4006 26.3349 86.389 26.3595 86.375 26.3842L79.4105 22.4478ZM78.4248 26.324C78.4248 27.6406 78.7267 28.9543 79.4105 30.1642L86.375 26.2278C86.3859 26.247 86.396 26.268 86.4045 26.2895C86.4131 26.3109 86.4188 26.3296 86.4224 26.3439C86.4299 26.3739 86.4248 26.3715 86.4248 26.324H78.4248ZM79.476 30.2758C80.1197 31.3333 80.9796 32.227 82.0413 32.9026L86.3363 26.1534C86.3328 26.1511 86.3321 26.1504 86.3332 26.1513C86.3342 26.1522 86.3353 26.1531 86.3357 26.1536C86.3361 26.154 86.3343 26.1523 86.3304 26.1472C86.3265 26.1421 86.3193 26.1323 86.3096 26.1162L79.476 30.2758ZM82.2206 33.0103C83.4092 33.6821 84.7058 33.996 86.0248 33.996V25.996C86.0008 25.996 86.013 25.9936 86.0498 26.0029C86.0879 26.0126 86.1264 26.0284 86.157 26.0457L82.2206 33.0103ZM86.0248 33.996C86.7246 33.996 87.5247 33.9164 88.3337 33.6467L85.8039 26.0573C85.9267 26.0163 86.0122 26.0021 86.0452 25.9975C86.0785 25.9929 86.0744 25.996 86.0248 25.996V33.996ZM88.2451 33.6751C88.7439 33.5217 89.2808 33.3149 89.8034 33.0246L85.9182 26.0314C85.9437 26.0172 85.9626 26.0079 85.9736 26.0026C85.9846 25.9974 85.9891 25.9956 85.9862 25.9968C85.9834 25.998 85.9744 26.0016 85.9584 26.0072C85.9425 26.0129 85.9207 26.0202 85.8924 26.0289L88.2451 33.6751ZM90.0796 32.8562C90.2792 32.7231 90.3849 32.6567 90.4228 32.634L86.3068 25.774C86.1047 25.8953 85.8744 26.0449 85.642 26.1998L90.0796 32.8562ZM90.5836 32.5322C90.7875 32.3962 90.9621 32.2913 91.1082 32.2116L87.2774 25.1884C86.8955 25.3967 86.518 25.6278 86.146 25.8758L90.5836 32.5322ZM91.3403 32.0746C91.0202 32.2783 90.5592 32.448 90.0208 32.448V24.448C88.9064 24.448 87.8933 24.7857 87.0453 25.3254L91.3403 32.0746ZM90.0208 32.448C89.2653 32.448 88.8018 32.1448 88.6993 32.0696L93.4302 25.6184C92.6078 25.0152 91.4483 24.448 90.0208 24.448V32.448ZM88.846 32.1722C88.7538 32.1107 88.7404 32.0865 88.8034 32.1494C88.8627 32.2088 88.9629 32.3185 89.1028 32.4972L95.4028 27.5668C94.8498 26.8602 94.1486 26.0925 93.2836 25.5158L88.846 32.1722ZM89.0711 32.4562C89.1248 32.5267 89.1093 32.5204 89.0709 32.4372C89.0313 32.3514 88.9566 32.16 88.9252 31.8777L96.8763 30.9943C96.7197 29.5847 96.069 28.4406 95.4345 27.6078L89.0711 32.4562ZM88.9552 32.0936C88.9081 31.8107 88.9103 31.4849 88.9891 31.1498C89.0668 30.8196 89.1988 30.5653 89.3166 30.3939L95.9089 34.9261C96.7184 33.7487 97.1003 32.3022 96.8464 30.7784L88.9552 32.0936ZM89.3166 30.3939C89.3863 30.2925 89.4319 30.2546 89.4138 30.2712C89.3958 30.2875 89.3328 30.3414 89.2037 30.4256L93.5739 37.1264C94.3958 36.5904 95.2534 35.8796 95.909 34.9261L89.3166 30.3939ZM88.7548 30.7657C88.8324 30.6977 88.8858 30.6594 88.8974 30.6512C88.9117 30.6411 88.9062 30.6457 88.8743 30.6654C88.8078 30.7067 88.6849 30.7779 88.4888 30.8807L92.2008 37.9673C92.7285 37.6909 93.4456 37.2914 94.0228 36.7863L88.7548 30.7657ZM88.4171 30.9191C88.2564 31.0075 87.9374 31.1501 87.3954 31.3127L89.6942 38.9753C90.5922 38.7059 91.4732 38.3685 92.2725 37.9289L88.4171 30.9191ZM87.3592 31.3237C87.1202 31.3979 86.7393 31.468 86.1688 31.468V39.468C87.3743 39.468 88.5773 39.3221 89.7304 38.9643L87.3592 31.3237ZM100.025 34.82L98.3529 38.454C98.362 38.4581 98.3711 38.4623 98.3801 38.4663L100.025 34.82ZM97.0726 32.66L94.0129 35.2365C94.0242 35.25 94.0356 35.2633 94.0471 35.2766L97.0726 32.66ZM95.3446 29.636L91.5416 30.8761C91.5497 30.9008 91.558 30.9255 91.5666 30.9501L95.3446 29.636ZM99.4126 18.26L101.34 21.7649C101.355 21.7567 101.37 21.7484 101.385 21.7401L99.4126 18.26ZM107.981 17.72L106.332 21.3644C106.366 21.38 106.401 21.3951 106.436 21.4098L107.981 17.72ZM110.501 19.448L107.527 22.1239C107.559 22.1586 107.591 22.1928 107.623 22.2264L110.501 19.448ZM111.977 21.716L108.24 23.1445C108.252 23.1762 108.265 23.2077 108.278 23.239L111.977 21.716ZM111.509 27.008L108.68 24.1796L111.509 27.008ZM100.529 27.944V23.944C99.4144 23.944 98.3507 24.4087 97.5937 25.2262C96.8366 26.0437 96.4549 27.1399 96.5403 28.2508L100.529 27.944ZM101.177 29.528L98.1869 32.1855C98.2137 32.2155 98.2409 32.2452 98.2685 32.2745L101.177 29.528ZM106.109 30.824L106.55 34.7995C106.623 34.7915 106.694 34.7815 106.766 34.7696L106.109 30.824ZM107.225 30.572L108.401 34.3951C108.488 34.3682 108.575 34.3383 108.66 34.3054L107.225 30.572ZM108.089 30.248L109.456 34.0072C109.553 33.9717 109.649 33.9324 109.744 33.8895L108.089 30.248ZM108.773 29.96L107.508 26.1653C107.461 26.1809 107.414 26.1974 107.368 26.2147L108.773 29.96ZM109.385 29.816L109.118 25.8249C109.042 25.83 108.965 25.8373 108.888 25.8469L109.385 29.816ZM110.357 30.14L107.796 33.2129C107.887 33.289 107.982 33.3611 108.08 33.4288L110.357 30.14ZM111.185 31.148L107.645 33.011C107.696 33.108 107.751 33.203 107.81 33.2955L111.185 31.148ZM111.509 31.904L107.586 32.6885C107.611 32.8115 107.641 32.9332 107.677 33.0534L111.509 31.904ZM110.717 34.172L108.296 30.9874C108.275 31.0033 108.254 31.0195 108.234 31.0358L110.717 34.172ZM108.233 35.252L107.283 31.3664C107.276 31.3681 107.269 31.3697 107.262 31.3714L108.233 35.252ZM100.529 24.992H96.5286C96.5286 27.2011 98.3194 28.992 100.529 28.992V24.992ZM107.045 24.812L109.37 28.0669C109.395 28.0489 109.42 28.0306 109.445 28.012L107.045 24.812ZM106.937 22.904L103.791 25.3753C103.821 25.4133 103.852 25.4508 103.883 25.4878L106.937 22.904ZM105.857 22.148L104.232 25.8032C104.312 25.8386 104.392 25.8713 104.474 25.9014L105.857 22.148ZM102.365 22.292L104.153 25.8697L104.153 25.8697L102.365 22.292ZM100.997 23.444L97.7196 21.1502C97.6934 21.1877 97.6678 21.2256 97.6428 21.264L100.997 23.444ZM104.381 31.648C103.129 31.648 102.263 31.4417 101.669 31.1737L98.3801 38.4663C100.234 39.3023 102.272 39.648 104.381 39.648V31.648ZM101.696 31.186C100.95 30.8427 100.448 30.4485 100.098 30.0434L94.0471 35.2766C95.2328 36.6475 96.6993 37.6933 98.3529 38.454L101.696 31.186ZM100.132 30.0835C99.6723 29.5373 99.3429 28.9554 99.1225 28.3219L91.5666 30.9501C92.1142 32.5245 92.9369 33.9587 94.0129 35.2365L100.132 30.0835ZM99.1475 28.3959C98.9112 27.6715 98.8046 26.9854 98.8046 26.324H90.8046C90.8046 27.8706 91.0579 29.3925 91.5416 30.8761L99.1475 28.3959ZM98.8046 26.324C98.8046 25.1509 99.0633 24.2686 99.4794 23.5589L92.5778 19.5131C91.3618 21.5874 90.8046 23.8971 90.8046 26.324H98.8046ZM99.4794 23.5589C99.9235 22.8012 100.52 22.216 101.34 21.7649L97.4849 14.7551C95.4252 15.888 93.7656 17.4868 92.5778 19.5131L99.4794 23.5589ZM101.385 21.7401C102.148 21.3076 103.108 21.036 104.381 21.036V13.036C101.909 13.036 99.5573 13.5804 97.4405 14.7799L101.385 21.7401ZM104.381 21.036C105.346 21.036 105.957 21.195 106.332 21.3644L109.629 14.0756C107.988 13.3329 106.199 13.036 104.381 13.036V21.036ZM106.436 21.4098C107.007 21.6488 107.332 21.9064 107.527 22.1239L113.474 16.7721C112.373 15.5496 111.018 14.6552 109.525 14.0302L106.436 21.4098ZM107.623 22.2264C107.961 22.5766 108.14 22.8833 108.24 23.1445L115.713 20.2875C115.189 18.9167 114.384 17.7114 113.378 16.6696L107.623 22.2264ZM108.278 23.239C108.451 23.6601 108.481 23.9221 108.481 24.056H116.481C116.481 22.7019 116.174 21.4039 115.675 20.193L108.278 23.239ZM108.481 24.056C108.481 24.224 108.47 24.3452 108.459 24.426C108.447 24.5066 108.436 24.5386 108.438 24.533C108.44 24.5261 108.456 24.4809 108.497 24.4122C108.539 24.3418 108.599 24.2603 108.68 24.1796L114.337 29.8364C116.012 28.1614 116.481 25.9678 116.481 24.056H108.481ZM108.68 24.1796C108.752 24.1081 108.862 24.0307 108.99 23.9809C109.11 23.9345 109.163 23.944 109.097 23.944V31.944C111.008 31.944 112.873 31.3 114.337 29.8364L108.68 24.1796ZM109.097 23.944H100.529V31.944H109.097V23.944ZM96.5403 28.2508C96.6495 29.6698 97.1731 31.0449 98.1869 32.1855L104.166 26.8705C104.271 26.988 104.363 27.1334 104.429 27.2935C104.493 27.4502 104.512 27.5742 104.517 27.6372L96.5403 28.2508ZM98.2685 32.2745C99.1088 33.1642 100.112 33.8135 101.203 34.2499L104.174 26.8221C104.114 26.7981 104.086 26.7803 104.079 26.7758C104.073 26.7718 104.078 26.774 104.085 26.7815L98.2685 32.2745ZM101.203 34.2499C102.294 34.6864 103.436 34.896 104.597 34.896V26.896C104.413 26.896 104.283 26.8656 104.174 26.8221L101.203 34.2499ZM104.597 34.896C105.276 34.896 105.933 34.8681 106.55 34.7995L105.667 26.8485C105.42 26.8759 105.069 26.896 104.597 26.896V34.896ZM106.766 34.7696C107.318 34.6775 107.873 34.5576 108.401 34.3951L106.048 26.7489C105.952 26.7784 105.763 26.8265 105.451 26.8784L106.766 34.7696ZM108.66 34.3054C108.954 34.1926 109.218 34.0934 109.456 34.0072L106.722 26.4888C106.431 26.5946 106.119 26.7114 105.789 26.8386L108.66 34.3054ZM109.744 33.8895C109.956 33.7929 110.096 33.7356 110.177 33.7053L107.368 26.2147C107.065 26.3284 106.749 26.4631 106.433 26.6065L109.744 33.8895ZM110.037 33.7547C110.046 33.7519 109.991 33.7713 109.881 33.7851L108.888 25.8469C108.394 25.9087 107.931 26.0241 107.508 26.1653L110.037 33.7547ZM109.651 33.8071C109.342 33.8277 108.991 33.7931 108.633 33.6737C108.277 33.5553 107.997 33.3809 107.796 33.2129L112.917 27.0671C111.874 26.1978 110.547 25.7296 109.118 25.8249L109.651 33.8071ZM108.08 33.4288C107.707 33.1707 107.603 32.9306 107.645 33.011L114.724 29.285C114.287 28.4534 113.63 27.5413 112.633 26.8512L108.08 33.4288ZM107.81 33.2955C107.783 33.2537 107.658 33.0467 107.586 32.6885L115.431 31.1195C115.263 30.2813 114.922 29.5703 114.559 29.0005L107.81 33.2955ZM107.677 33.0534C107.642 32.937 107.617 32.7902 107.617 32.624H115.617C115.617 31.9778 115.519 31.351 115.34 30.7546L107.677 33.0534ZM107.617 32.624C107.617 32.1795 107.742 31.762 107.934 31.4325C108.108 31.1319 108.282 30.9978 108.296 30.9874L113.137 37.3566C114.398 36.3983 115.617 34.8174 115.617 32.624H107.617ZM108.234 31.0358C108.271 31.0063 108.234 31.0437 108.069 31.1157C107.904 31.1872 107.65 31.2765 107.283 31.3664L109.182 39.1376C110.561 38.8006 112.001 38.2569 113.199 37.3082L108.234 31.0358ZM107.262 31.3714C106.62 31.5321 105.682 31.648 104.381 31.648V39.648C106.103 39.648 107.733 39.4999 109.203 39.1326L107.262 31.3714ZM100.529 28.992H106.217V20.992H100.529V28.992ZM106.217 28.992C106.816 28.992 108.152 28.9369 109.37 28.0669L104.72 21.5571C105.209 21.2078 105.652 21.0839 105.862 21.0383C105.978 21.013 106.068 21.0021 106.122 20.9972C106.177 20.9922 106.21 20.992 106.217 20.992V28.992ZM109.445 28.012C111.128 26.7497 111.333 24.9009 111.333 24.02H103.333C103.333 23.9071 103.345 22.5863 104.645 21.612L109.445 28.012ZM111.333 24.02C111.333 22.7004 110.902 21.3979 109.99 20.3202L103.883 25.4878C103.714 25.2883 103.565 25.0399 103.464 24.7546C103.364 24.4724 103.333 24.2168 103.333 24.02H111.333ZM110.082 20.4327C109.3 19.4378 108.293 18.7827 107.239 18.3946L104.474 25.9014C104.333 25.8493 104.045 25.6982 103.791 25.3753L110.082 20.4327ZM107.481 18.4928C106.439 18.0295 105.361 17.86 104.345 17.86V25.86C104.48 25.86 104.41 25.8825 104.232 25.8032L107.481 18.4928ZM104.345 17.86C103.076 17.86 101.787 18.1084 100.576 18.7143L104.153 25.8697C104.13 25.8814 104.123 25.8807 104.144 25.8761C104.168 25.871 104.231 25.86 104.345 25.86V17.86ZM100.576 18.7143C99.4649 19.2697 98.474 20.0724 97.7196 21.1502L104.273 25.7378C104.239 25.7874 104.2 25.8278 104.167 25.8556C104.135 25.8823 104.125 25.8839 104.153 25.8697L100.576 18.7143ZM97.6428 21.264C96.9256 22.3675 96.5286 23.6364 96.5286 24.992H104.529C104.529 25.0986 104.513 25.2222 104.474 25.3486C104.437 25.4738 104.387 25.5669 104.35 25.624L97.6428 21.264Z" fill="#4E4E4E" mask="url(#path-1-outside-1_2091_232)"/>
</g>
<defs>
<filter id="filter0_d_2091_232" x="10.1274" y="9.15198" width="106.353" height="30.496" filterUnits="userSpaceOnUse" color-interpolation-filters="sRGB">
<feFlood flood-opacity="0" result="BackgroundImageFix"/>
<feColorMatrix in="SourceAlpha" type="matrix" values="0 0 0 0 0 0 0 0 0 0 0 0 0 0 0 0 0 0 127 0" result="hardAlpha"/>
<feOffset dx="4" dy="4"/>
<feComposite in2="hardAlpha" operator="out"/>
<feColorMatrix type="matrix" values="0 0 0 0 0.306547 0 0 0 0 0.306547 0 0 0 0 0.306547 0 0 0 1 0"/>
<feBlend mode="normal" in2="BackgroundImageFix" result="effect1_dropShadow_2091_232"/>
<feBlend mode="normal" in="SourceGraphic" in2="effect1_dropShadow_2091_232" result="shape"/>
</filter>
</defs>
</svg>
