<svg width="25" height="24" viewBox="0 0 25 24" fill="none" xmlns="http://www.w3.org/2000/svg">
<path d="M15.371 3.70636L15.4333 3.84424C16.2861 5.73158 18.0331 7.06162 20.0793 7.3813L20.8644 7.50396C23.2585 7.87798 24.1206 10.9208 22.2451 12.5068C20.503 13.98 19.7789 16.3453 20.4114 18.5432C21.0813 20.8712 18.6785 22.8934 16.4991 21.8357L15.3808 21.293C13.5986 20.4281 11.5112 20.4624 9.75829 21.3853L9.26138 21.647C7.04094 22.8161 4.46248 20.871 4.97684 18.4148C5.43323 16.2355 4.63578 13.983 2.91455 12.574C0.839501 10.8753 1.86984 7.52267 4.5237 7.27697L4.80502 7.25092C6.97914 7.04963 8.87759 5.6961 9.7766 3.70636C10.8644 1.29883 14.2833 1.29883 15.371 3.70636Z" fill="#FFFBBC" stroke="#FFE942" stroke-width="3"/>
</svg>
