<svg width="40" height="37" viewBox="0 0 40 37" fill="none" xmlns="http://www.w3.org/2000/svg">
<path d="M17.1438 3.70238C18.3841 0.95718 22.2825 0.957179 23.5229 3.70238L25.3834 7.82017C26.2864 9.81887 28.1365 11.2274 30.3035 11.5659L34.9533 12.2924C37.9162 12.7553 38.963 16.4865 36.6731 18.4229L34.0205 20.6662C32.0655 22.3195 31.2631 24.9664 31.9712 27.4269L32.8951 30.6376C33.7327 33.5483 30.7284 36.0767 28.0035 34.7543L23.2632 32.4538C21.4037 31.5515 19.2258 31.5872 17.397 32.5502L13.2705 34.7228C10.6501 36.1026 7.6072 33.8071 8.21422 30.9085L8.99503 27.18C9.49204 24.8067 8.62672 22.3541 6.75046 20.8181L3.38484 18.0629C0.962798 16.0801 2.16245 12.1581 5.27924 11.8696L10.0439 11.4284C12.3722 11.2129 14.4053 9.76332 15.3681 7.63244L17.1438 3.70238Z" fill="#FFFBBC" stroke="#FFE942" stroke-width="3"/>
</svg>
